<svg width="212" height="40" viewBox="0 0 212 40" fill="none" xmlns="http://www.w3.org/2000/svg">
<path d="M12.0565 14.04H23.6417V29.12C22.1755 29.6267 20.5785 30.04 18.8505 30.36C17.1487 30.6533 15.2898 30.8 13.2739 30.8C10.5249 30.8 8.15546 30.2533 6.16568 29.16C4.17591 28.0667 2.64431 26.4267 1.57088 24.24C0.523625 22.0533 0 19.3333 0 16.08C0 13.0933 0.562897 10.5067 1.68869 8.32C2.81448 6.13333 4.4639 4.44 6.63695 3.24C8.83617 2.04 11.5197 1.44 14.6877 1.44C16.2847 1.44 17.8294 1.6 19.3218 1.92C20.8403 2.24 22.1755 2.66667 23.3275 3.2L21.1675 8.6C20.2512 8.12 19.2432 7.74667 18.1436 7.48C17.044 7.21334 15.892 7.08 14.6877 7.08C12.9859 7.08 11.5459 7.48 10.3678 8.28C9.2158 9.05333 8.35182 10.1333 7.77583 11.52C7.19984 12.88 6.91185 14.44 6.91185 16.2C6.91185 18.04 7.16057 19.6267 7.65801 20.96C8.15546 22.2933 8.90162 23.3333 9.89651 24.08C10.9176 24.8 12.2136 25.16 13.7844 25.16C14.2295 25.16 14.6615 25.1467 15.0804 25.12C15.4993 25.0667 15.892 25.0133 16.2586 24.96C16.6251 24.9067 16.9524 24.8533 17.2404 24.8V19.52H12.0565V14.04Z" fill="#DB4F00"/>
<path d="M28.1361 8.44H35.2051L39.093 20.88C39.1977 21.2 39.2763 21.5333 39.3286 21.88C39.4072 22.2 39.4726 22.5467 39.525 22.92C39.5774 23.2667 39.6166 23.64 39.6428 24.04H39.7606C39.8392 23.4267 39.9308 22.8667 40.0355 22.36C40.1664 21.8267 40.2973 21.3467 40.4282 20.92L44.3162 8.44H51.228L42.3526 32.56C41.7766 34.1867 41.0435 35.5467 40.1533 36.64C39.2894 37.76 38.2421 38.6 37.0116 39.16C35.8073 39.72 34.3935 40 32.7702 40C32.1157 40 31.5397 39.96 31.0423 39.88C30.5448 39.8267 30.1128 39.76 29.7463 39.68V34.36C30.0343 34.4133 30.3746 34.4667 30.7674 34.52C31.1863 34.5733 31.6183 34.6 32.0633 34.6C32.9011 34.6 33.5949 34.4267 34.1447 34.08C34.6946 33.7333 35.1527 33.2667 35.5193 32.68C35.8858 32.12 36.1869 31.5067 36.4225 30.84L36.6581 30.16L28.1361 8.44Z" fill="#DB4F00"/>
<path d="M81.4238 8.04C83.8848 8.04 85.7437 8.68 87.0004 9.96C88.2833 11.2133 88.9247 13.2533 88.9247 16.08V30.4H82.327V17.96C82.327 16.36 82.0783 15.2 81.5809 14.48C81.1096 13.7333 80.3765 13.36 79.3816 13.36C77.994 13.36 77.0122 13.92 76.4362 15.04C75.8603 16.1333 75.5723 17.7067 75.5723 19.76V30.4H68.9746V17.96C68.9746 16.92 68.8699 16.0667 68.6604 15.4C68.451 14.7067 68.1368 14.2 67.7179 13.88C67.299 13.5333 66.7492 13.36 66.0685 13.36C65.0998 13.36 64.3274 13.64 63.7514 14.2C63.2016 14.7333 62.8089 15.52 62.5733 16.56C62.3638 17.6 62.2591 18.88 62.2591 20.4V30.4H55.6222V8.44H60.649L61.5915 11.2H61.8664C62.2853 10.5067 62.8089 9.93334 63.4373 9.48C64.0656 9 64.7856 8.64 65.5972 8.4C66.4088 8.16 67.2859 8.04 68.2284 8.04C69.7993 8.04 71.1215 8.30667 72.1949 8.84C73.2683 9.37333 74.1061 10.1467 74.7083 11.16H75.101C75.7817 10.12 76.685 9.34667 77.8108 8.84C78.9366 8.30667 80.1409 8.04 81.4238 8.04Z" fill="#DB4F00"/>
<path d="M117.632 1.84C121.219 1.84 123.864 2.64 125.565 4.24C127.293 5.81333 128.157 8.01334 128.157 10.84C128.157 12.12 127.974 13.3467 127.608 14.52C127.241 15.6667 126.626 16.6933 125.762 17.6C124.924 18.5067 123.811 19.2267 122.424 19.76C121.062 20.2933 119.373 20.56 117.358 20.56H115.001V30.4H108.325V1.84H117.632ZM117.397 7.4H115.001V15H116.768C117.685 15 118.483 14.8667 119.164 14.6C119.871 14.3333 120.421 13.9067 120.813 13.32C121.206 12.7333 121.403 11.9733 121.403 11.04C121.403 9.86667 121.075 8.97334 120.421 8.36C119.766 7.72 118.758 7.4 117.397 7.4Z" fill="#DB4F00"/>
<path d="M140.798 30.4H134.161V0H140.798V30.4Z" fill="#DB4F00"/>
<path d="M157.704 8C160.505 8 162.678 8.66667 164.223 10C165.768 11.3067 166.54 13.2533 166.54 15.84V30.4H161.945L160.649 27.44H160.492C159.89 28.2133 159.262 28.8533 158.607 29.36C157.979 29.8667 157.246 30.2267 156.408 30.44C155.596 30.68 154.588 30.8 153.384 30.8C152.127 30.8 150.988 30.5467 149.967 30.04C148.972 29.5333 148.187 28.76 147.611 27.72C147.035 26.68 146.747 25.36 146.747 23.76C146.747 21.4133 147.546 19.68 149.143 18.56C150.766 17.44 153.135 16.8133 156.251 16.68L159.942 16.56V15.92C159.942 14.8533 159.667 14.08 159.118 13.6C158.594 13.12 157.861 12.88 156.918 12.88C155.976 12.88 154.994 13.04 153.973 13.36C152.952 13.6533 151.918 14.0267 150.871 14.48L148.868 10C150.046 9.36 151.381 8.86667 152.873 8.52C154.366 8.17334 155.976 8 157.704 8ZM157.939 20.48C156.29 20.5333 155.138 20.84 154.484 21.4C153.829 21.9333 153.502 22.6667 153.502 23.6C153.502 24.4267 153.737 25.0267 154.209 25.4C154.68 25.7733 155.282 25.96 156.015 25.96C157.115 25.96 158.044 25.6267 158.803 24.96C159.563 24.2667 159.942 23.3333 159.942 22.16V20.4L157.939 20.48Z" fill="#DB4F00"/>
<path d="M183.477 25.44C184.158 25.44 184.786 25.3733 185.362 25.24C185.938 25.1067 186.527 24.9333 187.13 24.72V29.68C186.423 30 185.611 30.2667 184.695 30.48C183.778 30.6933 182.692 30.8 181.435 30.8C180.1 30.8 178.909 30.5867 177.861 30.16C176.84 29.7067 176.029 28.9467 175.427 27.88C174.851 26.7867 174.563 25.28 174.563 23.36V13.48H171.814V10.68L175.112 8.52L176.919 3.88H181.16V8.44H186.894V13.48H181.16V23.12C181.16 23.8933 181.37 24.48 181.789 24.88C182.207 25.2533 182.77 25.44 183.477 25.44Z" fill="#DB4F00"/>
<path d="M202.104 8.04C204.146 8.04 205.9 8.42667 207.366 9.2C208.858 9.94667 209.997 11.0667 210.783 12.56C211.594 14.0267 212 15.8533 212 18.04V21.16H198.373C198.425 22.6 198.883 23.7467 199.747 24.6C200.611 25.4533 201.842 25.88 203.439 25.88C204.826 25.88 206.083 25.7467 207.209 25.48C208.335 25.2133 209.5 24.7867 210.704 24.2V29.2C209.657 29.76 208.531 30.16 207.327 30.4C206.122 30.6667 204.643 30.8 202.889 30.8C200.716 30.8 198.778 30.4 197.077 29.6C195.401 28.8 194.079 27.5733 193.11 25.92C192.168 24.24 191.696 22.12 191.696 19.56C191.696 16.9467 192.128 14.8 192.992 13.12C193.856 11.4133 195.074 10.1467 196.645 9.32C198.216 8.46667 200.035 8.04 202.104 8.04ZM202.221 12.72C201.2 12.72 200.349 13.0533 199.669 13.72C199.014 14.36 198.621 15.3867 198.49 16.8H205.913C205.913 16.0267 205.769 15.3333 205.481 14.72C205.219 14.1067 204.813 13.6267 204.263 13.28C203.714 12.9067 203.033 12.72 202.221 12.72Z" fill="#DB4F00"/>
</svg>
